<mxfile host="app.diagrams.net" modified="2021-08-28T07:05:49.253Z" agent="5.0 (Windows NT 10.0; Win64; x64) AppleWebKit/537.36 (KHTML, like Gecko) Chrome/92.0.4515.131 Safari/537.36" etag="_Gat8sn33WRDO18nndrS" version="14.9.7" type="github" pages="5">
  <diagram id="dy4cVqkz6z1pIyXAL1fi" name="活动条2">
    <mxGraphModel dx="1422" dy="761" grid="0" gridSize="10" guides="1" tooltips="1" connect="1" arrows="1" fold="1" page="1" pageScale="1" pageWidth="827" pageHeight="1169" math="0" shadow="0">
      <root>
        <mxCell id="0" />
        <mxCell id="1" parent="0" />
        <mxCell id="XidPfb4Odw_lztGp0IA7-6" style="edgeStyle=orthogonalEdgeStyle;orthogonalLoop=1;jettySize=auto;html=1;exitX=1;exitY=0.5;exitDx=0;exitDy=0;" parent="1" source="XidPfb4Odw_lztGp0IA7-1" target="XidPfb4Odw_lztGp0IA7-2" edge="1">
          <mxGeometry relative="1" as="geometry" />
        </mxCell>
        <mxCell id="XidPfb4Odw_lztGp0IA7-1" value="&lt;pre style=&quot;font-size: 9pt&quot;&gt;&lt;span style=&quot;background-color: rgb(255 , 255 , 255)&quot;&gt;&lt;font color=&quot;#050505&quot;&gt;LeftTopWebViewModule&lt;/font&gt;&lt;/span&gt;&lt;/pre&gt;&lt;pre style=&quot;font-size: 9pt&quot;&gt;&lt;span style=&quot;background-color: rgb(255 , 255 , 255)&quot;&gt;&lt;font color=&quot;#050505&quot;&gt;左上角活动条模块&lt;/font&gt;&lt;/span&gt;&lt;/pre&gt;" style="whiteSpace=wrap;html=1;" parent="1" vertex="1">
          <mxGeometry x="85" y="594" width="154" height="60" as="geometry" />
        </mxCell>
        <mxCell id="XidPfb4Odw_lztGp0IA7-7" style="edgeStyle=orthogonalEdgeStyle;orthogonalLoop=1;jettySize=auto;html=1;exitX=1;exitY=0.5;exitDx=0;exitDy=0;entryX=0;entryY=0.5;entryDx=0;entryDy=0;" parent="1" source="XidPfb4Odw_lztGp0IA7-2" target="XidPfb4Odw_lztGp0IA7-3" edge="1">
          <mxGeometry relative="1" as="geometry">
            <Array as="points">
              <mxPoint x="617" y="624" />
              <mxPoint x="617" y="521" />
            </Array>
          </mxGeometry>
        </mxCell>
        <mxCell id="XidPfb4Odw_lztGp0IA7-8" style="edgeStyle=orthogonalEdgeStyle;orthogonalLoop=1;jettySize=auto;html=1;exitX=1;exitY=0.5;exitDx=0;exitDy=0;" parent="1" source="XidPfb4Odw_lztGp0IA7-2" target="XidPfb4Odw_lztGp0IA7-4" edge="1">
          <mxGeometry relative="1" as="geometry">
            <Array as="points">
              <mxPoint x="617" y="624" />
              <mxPoint x="617" y="666" />
            </Array>
          </mxGeometry>
        </mxCell>
        <mxCell id="XidPfb4Odw_lztGp0IA7-9" style="edgeStyle=orthogonalEdgeStyle;orthogonalLoop=1;jettySize=auto;html=1;exitX=1;exitY=0.5;exitDx=0;exitDy=0;entryX=0;entryY=0.5;entryDx=0;entryDy=0;" parent="1" source="XidPfb4Odw_lztGp0IA7-2" target="XidPfb4Odw_lztGp0IA7-5" edge="1">
          <mxGeometry relative="1" as="geometry" />
        </mxCell>
        <mxCell id="XidPfb4Odw_lztGp0IA7-14" style="edgeStyle=orthogonalEdgeStyle;orthogonalLoop=1;jettySize=auto;html=1;exitX=0.5;exitY=1;exitDx=0;exitDy=0;" parent="1" source="XidPfb4Odw_lztGp0IA7-2" target="XidPfb4Odw_lztGp0IA7-12" edge="1">
          <mxGeometry relative="1" as="geometry" />
        </mxCell>
        <mxCell id="XidPfb4Odw_lztGp0IA7-2" value="&lt;pre style=&quot;font-size: 9pt&quot;&gt;&lt;span style=&quot;background-color: rgb(255 , 255 , 255)&quot;&gt;&lt;font color=&quot;#050505&quot;&gt;LeftTopWebViewControllerV2&lt;/font&gt;&lt;/span&gt;&lt;/pre&gt;&lt;pre style=&quot;font-size: 9pt&quot;&gt;&lt;span style=&quot;background-color: rgb(255 , 255 , 255)&quot;&gt;&lt;font color=&quot;#050505&quot;&gt;左上角活动条控制器&lt;/font&gt;&lt;/span&gt;&lt;/pre&gt;" style="whiteSpace=wrap;html=1;fillColor=#f5f5f5;strokeColor=#666666;fontColor=#333333;" parent="1" vertex="1">
          <mxGeometry x="341" y="594" width="204" height="60" as="geometry" />
        </mxCell>
        <mxCell id="XidPfb4Odw_lztGp0IA7-28" style="edgeStyle=orthogonalEdgeStyle;orthogonalLoop=1;jettySize=auto;html=1;exitX=1;exitY=0.5;exitDx=0;exitDy=0;entryX=0;entryY=0.5;entryDx=0;entryDy=0;" parent="1" source="XidPfb4Odw_lztGp0IA7-3" target="XidPfb4Odw_lztGp0IA7-16" edge="1">
          <mxGeometry relative="1" as="geometry" />
        </mxCell>
        <mxCell id="XidPfb4Odw_lztGp0IA7-3" value="&lt;pre style=&quot;font-size: 9pt&quot;&gt;&lt;span style=&quot;background-color: rgb(255 , 255 , 255)&quot;&gt;&lt;font color=&quot;#050505&quot;&gt;LeftTopWebViewItem&lt;/font&gt;&lt;/span&gt;&lt;/pre&gt;&lt;pre style=&quot;font-size: 9pt&quot;&gt;&lt;span style=&quot;background-color: rgb(255 , 255 , 255)&quot;&gt;&lt;font color=&quot;#050505&quot;&gt;第一个位置&lt;/font&gt;&lt;/span&gt;&lt;/pre&gt;" style="whiteSpace=wrap;html=1;fillColor=#d5e8d4;strokeColor=#82b366;" parent="1" vertex="1">
          <mxGeometry x="901" y="491" width="204" height="60" as="geometry" />
        </mxCell>
        <mxCell id="XidPfb4Odw_lztGp0IA7-4" value="&lt;pre style=&quot;font-size: 9pt&quot;&gt;&lt;span style=&quot;background-color: rgb(255 , 255 , 255)&quot;&gt;&lt;font color=&quot;#050505&quot;&gt;LeftTopWebViewItemS&lt;/font&gt;&lt;/span&gt;&lt;/pre&gt;&lt;pre style=&quot;font-size: 9pt&quot;&gt;&lt;span style=&quot;background-color: rgb(255 , 255 , 255)&quot;&gt;&lt;font color=&quot;#050505&quot;&gt;第二个位置&lt;/font&gt;&lt;/span&gt;&lt;/pre&gt;" style="whiteSpace=wrap;html=1;fillColor=#dae8fc;strokeColor=#6c8ebf;" parent="1" vertex="1">
          <mxGeometry x="687" y="634" width="204" height="60" as="geometry" />
        </mxCell>
        <mxCell id="XidPfb4Odw_lztGp0IA7-5" value="&lt;pre style=&quot;font-size: 9pt&quot;&gt;&lt;span style=&quot;background-color: rgb(255 , 255 , 255)&quot;&gt;&lt;font color=&quot;#050505&quot;&gt;LeftTopWebViewItemT&lt;/font&gt;&lt;/span&gt;&lt;/pre&gt;&lt;pre style=&quot;font-size: 9pt&quot;&gt;&lt;span style=&quot;background-color: rgb(255 , 255 , 255)&quot;&gt;&lt;font color=&quot;#050505&quot;&gt;第三个位置&lt;/font&gt;&lt;/span&gt;&lt;/pre&gt;" style="whiteSpace=wrap;html=1;fillColor=#dae8fc;strokeColor=#6c8ebf;" parent="1" vertex="1">
          <mxGeometry x="687" y="740" width="204" height="60" as="geometry" />
        </mxCell>
        <mxCell id="XidPfb4Odw_lztGp0IA7-10" value="" style="endArrow=none;dashed=1;html=1;exitX=1;exitY=0.5;exitDx=0;exitDy=0;" parent="1" source="XidPfb4Odw_lztGp0IA7-4" edge="1">
          <mxGeometry width="50" height="50" relative="1" as="geometry">
            <mxPoint x="477" y="778" as="sourcePoint" />
            <mxPoint x="1002" y="555" as="targetPoint" />
          </mxGeometry>
        </mxCell>
        <mxCell id="XidPfb4Odw_lztGp0IA7-11" value="" style="endArrow=none;dashed=1;html=1;exitX=1;exitY=0.5;exitDx=0;exitDy=0;entryX=0.5;entryY=1;entryDx=0;entryDy=0;" parent="1" source="XidPfb4Odw_lztGp0IA7-5" target="XidPfb4Odw_lztGp0IA7-3" edge="1">
          <mxGeometry width="50" height="50" relative="1" as="geometry">
            <mxPoint x="901" y="674" as="sourcePoint" />
            <mxPoint x="1017" y="565" as="targetPoint" />
          </mxGeometry>
        </mxCell>
        <mxCell id="XidPfb4Odw_lztGp0IA7-15" style="edgeStyle=orthogonalEdgeStyle;orthogonalLoop=1;jettySize=auto;html=1;exitX=1;exitY=0.5;exitDx=0;exitDy=0;entryX=0;entryY=0.5;entryDx=0;entryDy=0;" parent="1" source="XidPfb4Odw_lztGp0IA7-12" target="XidPfb4Odw_lztGp0IA7-4" edge="1">
          <mxGeometry relative="1" as="geometry">
            <Array as="points">
              <mxPoint x="616" y="928" />
              <mxPoint x="616" y="664" />
            </Array>
          </mxGeometry>
        </mxCell>
        <mxCell id="XidPfb4Odw_lztGp0IA7-12" value="&lt;pre style=&quot;font-size: 9pt&quot;&gt;&lt;span style=&quot;background-color: rgb(255 , 255 , 255)&quot;&gt;&lt;font color=&quot;#050505&quot;&gt;LeftTopShowView&lt;/font&gt;&lt;/span&gt;&lt;/pre&gt;&lt;pre style=&quot;font-size: 9pt&quot;&gt;&lt;font color=&quot;#050505&quot;&gt;&lt;span style=&quot;background-color: rgb(255 , 255 , 255)&quot;&gt;进场动画&lt;/span&gt;&lt;/font&gt;&lt;/pre&gt;" style="whiteSpace=wrap;html=1;" parent="1" vertex="1">
          <mxGeometry x="341" y="898" width="204" height="60" as="geometry" />
        </mxCell>
        <mxCell id="XidPfb4Odw_lztGp0IA7-29" style="edgeStyle=orthogonalEdgeStyle;orthogonalLoop=1;jettySize=auto;html=1;exitX=0.5;exitY=1;exitDx=0;exitDy=0;" parent="1" source="XidPfb4Odw_lztGp0IA7-16" target="XidPfb4Odw_lztGp0IA7-26" edge="1">
          <mxGeometry relative="1" as="geometry" />
        </mxCell>
        <mxCell id="XidPfb4Odw_lztGp0IA7-16" value="&lt;pre style=&quot;font-size: 9pt&quot;&gt;&lt;span style=&quot;background-color: rgb(255 , 255 , 255)&quot;&gt;&lt;font color=&quot;#050505&quot;&gt;LeftTopWebView&lt;/font&gt;&lt;/span&gt;&lt;/pre&gt;&lt;pre style=&quot;font-size: 9pt&quot;&gt;&lt;font color=&quot;#050505&quot;&gt;&lt;span style=&quot;background-color: rgb(255 , 255 , 255)&quot;&gt;活动条Web&lt;/span&gt;&lt;/font&gt;&lt;/pre&gt;" style="whiteSpace=wrap;html=1;" parent="1" vertex="1">
          <mxGeometry x="1147" y="491" width="204" height="60" as="geometry" />
        </mxCell>
        <mxCell id="XidPfb4Odw_lztGp0IA7-17" value="继承" style="text;html=1;strokeColor=none;fillColor=none;align=center;verticalAlign=middle;whiteSpace=wrap;" parent="1" vertex="1">
          <mxGeometry x="898" y="585" width="40" height="20" as="geometry" />
        </mxCell>
        <mxCell id="XidPfb4Odw_lztGp0IA7-19" value="&lt;pre style=&quot;font-size: 9pt&quot;&gt;&lt;font color=&quot;#050505&quot;&gt;&lt;span style=&quot;background-color: rgb(255 , 255 , 255)&quot;&gt;ChannelRevenueCoreImpl&lt;/span&gt;&lt;/font&gt;&lt;/pre&gt;&lt;pre style=&quot;font-size: 9pt&quot;&gt;&lt;font color=&quot;#050505&quot;&gt;&lt;span style=&quot;background-color: rgb(255 , 255 , 255)&quot;&gt;活动条协议&lt;/span&gt;&lt;/font&gt;&lt;/pre&gt;" style="whiteSpace=wrap;html=1;" parent="1" vertex="1">
          <mxGeometry x="341" y="369" width="204" height="60" as="geometry" />
        </mxCell>
        <mxCell id="XidPfb4Odw_lztGp0IA7-21" value="" style="endArrow=classic;html=1;exitX=0.5;exitY=1;exitDx=0;exitDy=0;" parent="1" source="XidPfb4Odw_lztGp0IA7-19" target="XidPfb4Odw_lztGp0IA7-2" edge="1">
          <mxGeometry width="50" height="50" relative="1" as="geometry">
            <mxPoint x="651" y="667" as="sourcePoint" />
            <mxPoint x="701" y="617" as="targetPoint" />
          </mxGeometry>
        </mxCell>
        <mxCell id="XidPfb4Odw_lztGp0IA7-24" value="onCommonbLeftBC&lt;br&gt;2013.1026" style="text;html=1;strokeColor=none;fillColor=none;align=center;verticalAlign=middle;whiteSpace=wrap;" parent="1" vertex="1">
          <mxGeometry x="443" y="471" width="131" height="35" as="geometry" />
        </mxCell>
        <mxCell id="XidPfb4Odw_lztGp0IA7-26" value="&lt;pre style=&quot;font-size: 9pt&quot;&gt;&lt;font color=&quot;#050505&quot;&gt;&lt;span style=&quot;background-color: rgb(255 , 255 , 255)&quot;&gt;WebViewFragmentApi&lt;/span&gt;&lt;/font&gt;&lt;/pre&gt;&lt;pre style=&quot;font-size: 9pt&quot;&gt;&lt;font color=&quot;#050505&quot;&gt;&lt;span style=&quot;background-color: rgb(255 , 255 , 255)&quot;&gt;web页Api&lt;/span&gt;&lt;/font&gt;&lt;/pre&gt;" style="whiteSpace=wrap;html=1;" parent="1" vertex="1">
          <mxGeometry x="1147" y="738" width="204" height="60" as="geometry" />
        </mxCell>
        <mxCell id="XidPfb4Odw_lztGp0IA7-32" value="__config_group_animation__&lt;br&gt;动画标志" style="text;html=1;strokeColor=none;fillColor=none;align=center;verticalAlign=middle;whiteSpace=wrap;" parent="1" vertex="1">
          <mxGeometry x="241" y="763" width="190" height="51" as="geometry" />
        </mxCell>
        <mxCell id="XidPfb4Odw_lztGp0IA7-33" value="__config_group_position__&lt;br&gt;位置标志" style="text;html=1;strokeColor=none;fillColor=none;align=center;verticalAlign=middle;whiteSpace=wrap;" parent="1" vertex="1">
          <mxGeometry x="460" y="712" width="155" height="51" as="geometry" />
        </mxCell>
      </root>
    </mxGraphModel>
  </diagram>
  <diagram id="psrFc1SnGyEZKCk3JrGv" name="活动条1">
    <mxGraphModel dx="1422" dy="761" grid="0" gridSize="10" guides="1" tooltips="1" connect="1" arrows="1" fold="1" page="1" pageScale="1" pageWidth="827" pageHeight="1169" math="0" shadow="0">
      <root>
        <mxCell id="NuIDoQPLTNn4cGacTlwq-0" />
        <mxCell id="NuIDoQPLTNn4cGacTlwq-1" parent="NuIDoQPLTNn4cGacTlwq-0" />
        <mxCell id="0KU94tGqLaj0PxJC5dCT-0" style="edgeStyle=orthogonalEdgeStyle;rounded=0;orthogonalLoop=1;jettySize=auto;html=1;exitX=1;exitY=0.5;exitDx=0;exitDy=0;" edge="1" parent="NuIDoQPLTNn4cGacTlwq-1" source="0KU94tGqLaj0PxJC5dCT-1" target="0KU94tGqLaj0PxJC5dCT-3">
          <mxGeometry relative="1" as="geometry" />
        </mxCell>
        <mxCell id="0KU94tGqLaj0PxJC5dCT-1" value="&lt;pre style=&quot;font-size: 9pt&quot;&gt;&lt;span style=&quot;background-color: rgb(255 , 255 , 255)&quot;&gt;&lt;font color=&quot;#050505&quot;&gt;WebActivityModule&lt;/font&gt;&lt;/span&gt;&lt;/pre&gt;&lt;pre style=&quot;font-size: 9pt&quot;&gt;&lt;span style=&quot;background-color: rgb(255 , 255 , 255)&quot;&gt;&lt;font color=&quot;#050505&quot;&gt;右下角活动条模块&lt;/font&gt;&lt;/span&gt;&lt;/pre&gt;" style="rounded=0;whiteSpace=wrap;html=1;" vertex="1" parent="NuIDoQPLTNn4cGacTlwq-1">
          <mxGeometry x="85" y="594" width="154" height="60" as="geometry" />
        </mxCell>
        <mxCell id="0KU94tGqLaj0PxJC5dCT-13" style="edgeStyle=orthogonalEdgeStyle;rounded=0;orthogonalLoop=1;jettySize=auto;html=1;exitX=1;exitY=0.5;exitDx=0;exitDy=0;entryX=0;entryY=0.5;entryDx=0;entryDy=0;" edge="1" parent="NuIDoQPLTNn4cGacTlwq-1" source="0KU94tGqLaj0PxJC5dCT-3" target="0KU94tGqLaj0PxJC5dCT-9">
          <mxGeometry relative="1" as="geometry" />
        </mxCell>
        <mxCell id="0KU94tGqLaj0PxJC5dCT-21" style="edgeStyle=orthogonalEdgeStyle;rounded=0;orthogonalLoop=1;jettySize=auto;html=1;exitX=0.25;exitY=0;exitDx=0;exitDy=0;entryX=0.25;entryY=1;entryDx=0;entryDy=0;" edge="1" parent="NuIDoQPLTNn4cGacTlwq-1" source="0KU94tGqLaj0PxJC5dCT-3" target="0KU94tGqLaj0PxJC5dCT-5">
          <mxGeometry relative="1" as="geometry" />
        </mxCell>
        <mxCell id="0KU94tGqLaj0PxJC5dCT-3" value="&lt;pre style=&quot;font-size: 9pt&quot;&gt;&lt;font color=&quot;#050505&quot;&gt;&lt;span style=&quot;background-color: rgb(255 , 255 , 255)&quot;&gt;RevenueActController&lt;/span&gt;&lt;/font&gt;&lt;/pre&gt;&lt;pre style=&quot;font-size: 9pt&quot;&gt;&lt;font color=&quot;#050505&quot;&gt;&lt;span style=&quot;background-color: rgb(255 , 255 , 255)&quot;&gt;右下角&lt;/span&gt;&lt;/font&gt;活动条控制器&lt;/pre&gt;" style="rounded=0;whiteSpace=wrap;html=1;" vertex="1" parent="NuIDoQPLTNn4cGacTlwq-1">
          <mxGeometry x="341" y="594" width="204" height="60" as="geometry" />
        </mxCell>
        <mxCell id="0KU94tGqLaj0PxJC5dCT-5" value="&lt;pre style=&quot;font-size: 9pt&quot;&gt;&lt;font color=&quot;#050505&quot;&gt;&lt;span style=&quot;background-color: rgb(255 , 255 , 255)&quot;&gt;ChannelRevenueCoreImpl&lt;/span&gt;&lt;/font&gt;&lt;/pre&gt;&lt;pre style=&quot;font-size: 9pt&quot;&gt;&lt;font color=&quot;#050505&quot;&gt;&lt;span style=&quot;background-color: rgb(255 , 255 , 255)&quot;&gt;活动条协议&lt;/span&gt;&lt;/font&gt;&lt;/pre&gt;" style="rounded=0;whiteSpace=wrap;html=1;fillColor=#f5f5f5;strokeColor=#666666;fontColor=#333333;" vertex="1" parent="NuIDoQPLTNn4cGacTlwq-1">
          <mxGeometry x="341" y="369" width="204" height="60" as="geometry" />
        </mxCell>
        <mxCell id="0KU94tGqLaj0PxJC5dCT-6" value="" style="endArrow=classic;html=1;exitX=0.5;exitY=1;exitDx=0;exitDy=0;" edge="1" parent="NuIDoQPLTNn4cGacTlwq-1" source="0KU94tGqLaj0PxJC5dCT-5" target="0KU94tGqLaj0PxJC5dCT-3">
          <mxGeometry width="50" height="50" relative="1" as="geometry">
            <mxPoint x="651" y="667" as="sourcePoint" />
            <mxPoint x="701" y="617" as="targetPoint" />
          </mxGeometry>
        </mxCell>
        <mxCell id="0KU94tGqLaj0PxJC5dCT-7" value="onMainWebChannelInfo&lt;br&gt;2013.2" style="text;html=1;strokeColor=none;fillColor=none;align=center;verticalAlign=middle;whiteSpace=wrap;rounded=0;" vertex="1" parent="NuIDoQPLTNn4cGacTlwq-1">
          <mxGeometry x="443" y="471" width="131" height="35" as="geometry" />
        </mxCell>
        <mxCell id="0KU94tGqLaj0PxJC5dCT-15" style="edgeStyle=orthogonalEdgeStyle;rounded=0;orthogonalLoop=1;jettySize=auto;html=1;exitX=1;exitY=0.5;exitDx=0;exitDy=0;entryX=0;entryY=0.5;entryDx=0;entryDy=0;" edge="1" parent="NuIDoQPLTNn4cGacTlwq-1" source="0KU94tGqLaj0PxJC5dCT-9" target="0KU94tGqLaj0PxJC5dCT-11">
          <mxGeometry relative="1" as="geometry" />
        </mxCell>
        <mxCell id="0KU94tGqLaj0PxJC5dCT-16" style="edgeStyle=orthogonalEdgeStyle;rounded=0;orthogonalLoop=1;jettySize=auto;html=1;exitX=1;exitY=0.5;exitDx=0;exitDy=0;entryX=0;entryY=0.5;entryDx=0;entryDy=0;" edge="1" parent="NuIDoQPLTNn4cGacTlwq-1" source="0KU94tGqLaj0PxJC5dCT-9" target="0KU94tGqLaj0PxJC5dCT-10">
          <mxGeometry relative="1" as="geometry" />
        </mxCell>
        <mxCell id="0KU94tGqLaj0PxJC5dCT-23" style="edgeStyle=orthogonalEdgeStyle;rounded=0;orthogonalLoop=1;jettySize=auto;html=1;exitX=0.5;exitY=1;exitDx=0;exitDy=0;entryX=0.5;entryY=0;entryDx=0;entryDy=0;" edge="1" parent="NuIDoQPLTNn4cGacTlwq-1" source="0KU94tGqLaj0PxJC5dCT-9" target="0KU94tGqLaj0PxJC5dCT-22">
          <mxGeometry relative="1" as="geometry" />
        </mxCell>
        <mxCell id="Ng_NigqT1UU2NnVM8gWz-2" style="edgeStyle=orthogonalEdgeStyle;rounded=0;orthogonalLoop=1;jettySize=auto;html=1;exitX=0.5;exitY=0;exitDx=0;exitDy=0;entryX=0.5;entryY=1;entryDx=0;entryDy=0;" edge="1" parent="NuIDoQPLTNn4cGacTlwq-1" source="0KU94tGqLaj0PxJC5dCT-9" target="Ng_NigqT1UU2NnVM8gWz-1">
          <mxGeometry relative="1" as="geometry" />
        </mxCell>
        <mxCell id="0KU94tGqLaj0PxJC5dCT-9" value="&lt;pre style=&quot;font-size: 9pt&quot;&gt;&lt;font color=&quot;#050505&quot;&gt;&lt;span style=&quot;background-color: rgb(255 , 255 , 255)&quot;&gt;RevenueActAssisant&lt;/span&gt;&lt;/font&gt;&lt;/pre&gt;&lt;pre style=&quot;font-size: 9pt&quot;&gt;&lt;span style=&quot;background-color: rgb(255 , 255 , 255)&quot;&gt;&lt;font color=&quot;#050505&quot;&gt;活动条控制器&lt;/font&gt;&lt;/span&gt;&lt;/pre&gt;" style="rounded=0;whiteSpace=wrap;html=1;fillColor=#f8cecc;strokeColor=#b85450;" vertex="1" parent="NuIDoQPLTNn4cGacTlwq-1">
          <mxGeometry x="663" y="594" width="204" height="60" as="geometry" />
        </mxCell>
        <mxCell id="0KU94tGqLaj0PxJC5dCT-17" style="edgeStyle=orthogonalEdgeStyle;rounded=0;orthogonalLoop=1;jettySize=auto;html=1;exitX=1;exitY=0.5;exitDx=0;exitDy=0;" edge="1" parent="NuIDoQPLTNn4cGacTlwq-1" source="0KU94tGqLaj0PxJC5dCT-10" target="0KU94tGqLaj0PxJC5dCT-12">
          <mxGeometry relative="1" as="geometry" />
        </mxCell>
        <mxCell id="0KU94tGqLaj0PxJC5dCT-10" value="&lt;pre style=&quot;font-size: 9pt&quot;&gt;&lt;font color=&quot;#050505&quot;&gt;&lt;span style=&quot;background-color: rgb(255 , 255 , 255)&quot;&gt;NativeRevenueActBar&lt;/span&gt;&lt;/font&gt;&lt;/pre&gt;&lt;pre style=&quot;font-size: 9pt&quot;&gt;&lt;span style=&quot;background-color: rgb(255 , 255 , 255)&quot;&gt;&lt;font color=&quot;#050505&quot;&gt;本地活动条（将废弃）&lt;/font&gt;&lt;/span&gt;&lt;/pre&gt;" style="rounded=0;whiteSpace=wrap;html=1;" vertex="1" parent="NuIDoQPLTNn4cGacTlwq-1">
          <mxGeometry x="936" y="508" width="204" height="60" as="geometry" />
        </mxCell>
        <mxCell id="0KU94tGqLaj0PxJC5dCT-19" style="edgeStyle=orthogonalEdgeStyle;rounded=0;orthogonalLoop=1;jettySize=auto;html=1;exitX=1;exitY=0.5;exitDx=0;exitDy=0;entryX=0;entryY=0.5;entryDx=0;entryDy=0;" edge="1" parent="NuIDoQPLTNn4cGacTlwq-1" source="0KU94tGqLaj0PxJC5dCT-11" target="0KU94tGqLaj0PxJC5dCT-12">
          <mxGeometry relative="1" as="geometry" />
        </mxCell>
        <mxCell id="0KU94tGqLaj0PxJC5dCT-11" value="&lt;pre style=&quot;font-size: 9pt&quot;&gt;&lt;font color=&quot;#050505&quot;&gt;&lt;span style=&quot;background-color: rgb(255 , 255 , 255)&quot;&gt;WebRevenueActBar&lt;/span&gt;&lt;/font&gt;&lt;/pre&gt;&lt;pre style=&quot;font-size: 9pt&quot;&gt;&lt;span style=&quot;background-color: rgb(255 , 255 , 255)&quot;&gt;&lt;font color=&quot;#050505&quot;&gt;Web活动条&lt;/font&gt;&lt;/span&gt;&lt;/pre&gt;&lt;pre style=&quot;font-size: 9pt&quot;&gt;&lt;span style=&quot;background-color: rgb(255 , 255 , 255)&quot;&gt;&lt;font color=&quot;#050505&quot;&gt;拖拽逻辑&lt;/font&gt;&lt;/span&gt;&lt;/pre&gt;" style="rounded=0;whiteSpace=wrap;html=1;fillColor=#dae8fc;strokeColor=#6c8ebf;" vertex="1" parent="NuIDoQPLTNn4cGacTlwq-1">
          <mxGeometry x="936" y="658" width="204" height="75" as="geometry" />
        </mxCell>
        <mxCell id="0KU94tGqLaj0PxJC5dCT-12" value="&lt;pre style=&quot;font-size: 9pt&quot;&gt;&lt;font color=&quot;#050505&quot;&gt;&lt;span style=&quot;background-color: rgb(255 , 255 , 255)&quot;&gt;RevenueActBar&lt;/span&gt;&lt;/font&gt;&lt;/pre&gt;&lt;pre style=&quot;font-size: 9pt&quot;&gt;&lt;font color=&quot;#050505&quot;&gt;&lt;span style=&quot;background-color: rgb(255 , 255 , 255)&quot;&gt;活动条基类&lt;/span&gt;&lt;/font&gt;&lt;/pre&gt;&lt;pre style=&quot;font-size: 9pt&quot;&gt;&lt;font color=&quot;#050505&quot;&gt;&lt;span style=&quot;background-color: rgb(255 , 255 , 255)&quot;&gt;活动条宽高&lt;/span&gt;&lt;/font&gt;&lt;/pre&gt;&lt;pre style=&quot;font-size: 9pt&quot;&gt;&lt;font color=&quot;#050505&quot;&gt;&lt;span style=&quot;background-color: rgb(255 , 255 , 255)&quot;&gt;每个活动条左下角位置&lt;/span&gt;&lt;/font&gt;&lt;/pre&gt;&lt;pre style=&quot;font-size: 9pt&quot;&gt;&lt;font color=&quot;#050505&quot;&gt;&lt;span style=&quot;background-color: rgb(255 , 255 , 255)&quot;&gt;整个互动条控制位置&lt;/span&gt;&lt;/font&gt;&lt;/pre&gt;" style="rounded=0;whiteSpace=wrap;html=1;fillColor=#d5e8d4;strokeColor=#82b366;" vertex="1" parent="NuIDoQPLTNn4cGacTlwq-1">
          <mxGeometry x="1241" y="553" width="204" height="132" as="geometry" />
        </mxCell>
        <mxCell id="0KU94tGqLaj0PxJC5dCT-22" value="&lt;pre style=&quot;font-size: 9pt&quot;&gt;&lt;font color=&quot;#050505&quot;&gt;&lt;span style=&quot;background-color: rgb(255 , 255 , 255)&quot;&gt;FlexiblePageIndicator&lt;/span&gt;&lt;/font&gt;&lt;/pre&gt;&lt;pre style=&quot;font-size: 9pt&quot;&gt;&lt;span style=&quot;background-color: rgb(255 , 255 , 255)&quot;&gt;&lt;font color=&quot;#050505&quot;&gt;滚动点显示&lt;/font&gt;&lt;/span&gt;&lt;/pre&gt;" style="rounded=0;whiteSpace=wrap;html=1;" vertex="1" parent="NuIDoQPLTNn4cGacTlwq-1">
          <mxGeometry x="663" y="761" width="204" height="60" as="geometry" />
        </mxCell>
        <mxCell id="Ng_NigqT1UU2NnVM8gWz-0" value="&lt;div&gt;&lt;span&gt;&lt;font face=&quot;helvetica&quot;&gt;reqIsChannelRevenueActShow&lt;/font&gt;&lt;/span&gt;&lt;/div&gt;&lt;span style=&quot;color: rgb(0 , 0 , 0) ; font-family: &amp;#34;helvetica&amp;#34; ; font-size: 12px ; font-style: normal ; font-weight: 400 ; letter-spacing: normal ; text-indent: 0px ; text-transform: none ; word-spacing: 0px ; background-color: rgb(248 , 249 , 250) ; display: inline ; float: none&quot;&gt;2013.1&lt;/span&gt;" style="text;whiteSpace=wrap;html=1;align=center;" vertex="1" parent="NuIDoQPLTNn4cGacTlwq-1">
          <mxGeometry x="232" y="471" width="125" height="42" as="geometry" />
        </mxCell>
        <mxCell id="Ng_NigqT1UU2NnVM8gWz-1" value="&lt;pre style=&quot;font-size: 9pt&quot;&gt;&lt;font color=&quot;#050505&quot;&gt;&lt;span style=&quot;background-color: rgb(255 , 255 , 255)&quot;&gt;linearRectView&lt;/span&gt;&lt;/font&gt;&lt;/pre&gt;&lt;pre style=&quot;font-size: 9pt&quot;&gt;&lt;font color=&quot;#050505&quot;&gt;&lt;span style=&quot;background-color: rgb(255 , 255 , 255)&quot;&gt;移动导轨&lt;/span&gt;&lt;/font&gt;&lt;/pre&gt;" style="rounded=0;whiteSpace=wrap;html=1;" vertex="1" parent="NuIDoQPLTNn4cGacTlwq-1">
          <mxGeometry x="663" y="434" width="204" height="60" as="geometry" />
        </mxCell>
      </root>
    </mxGraphModel>
  </diagram>
  <diagram id="73hLiMfTnG6R-vdMe6-g" name="中屏活动条">
    <mxGraphModel dx="1422" dy="761" grid="0" gridSize="10" guides="1" tooltips="1" connect="1" arrows="1" fold="1" page="1" pageScale="1" pageWidth="827" pageHeight="1169" math="0" shadow="0">
      <root>
        <mxCell id="82FWV0vqpKfq4LdGT2EX-0" />
        <mxCell id="82FWV0vqpKfq4LdGT2EX-1" parent="82FWV0vqpKfq4LdGT2EX-0" />
        <mxCell id="l34au-5iK2HaqZB6a6BE-0" style="edgeStyle=orthogonalEdgeStyle;rounded=0;orthogonalLoop=1;jettySize=auto;html=1;exitX=1;exitY=0.5;exitDx=0;exitDy=0;" edge="1" parent="82FWV0vqpKfq4LdGT2EX-1" source="l34au-5iK2HaqZB6a6BE-1" target="l34au-5iK2HaqZB6a6BE-4">
          <mxGeometry relative="1" as="geometry" />
        </mxCell>
        <mxCell id="l34au-5iK2HaqZB6a6BE-1" value="&lt;pre style=&quot;font-size: 9pt&quot;&gt;&lt;span style=&quot;background-color: rgb(255 , 255 , 255)&quot;&gt;&lt;font color=&quot;#050505&quot;&gt;CenterWebModule&lt;/font&gt;&lt;/span&gt;&lt;/pre&gt;&lt;pre style=&quot;font-size: 9pt&quot;&gt;&lt;span style=&quot;background-color: rgb(255 , 255 , 255)&quot;&gt;&lt;font color=&quot;#050505&quot;&gt;中屏活动条模块&lt;/font&gt;&lt;/span&gt;&lt;/pre&gt;&lt;pre style=&quot;font-size: 9pt&quot;&gt;&lt;span style=&quot;background-color: rgb(255 , 255 , 255)&quot;&gt;&lt;font color=&quot;#050505&quot;&gt;（暂时只用于盛典模板）&lt;/font&gt;&lt;/span&gt;&lt;/pre&gt;" style="rounded=0;whiteSpace=wrap;html=1;" vertex="1" parent="82FWV0vqpKfq4LdGT2EX-1">
          <mxGeometry x="68" y="331.5" width="154" height="99" as="geometry" />
        </mxCell>
        <mxCell id="l34au-5iK2HaqZB6a6BE-2" style="edgeStyle=orthogonalEdgeStyle;rounded=0;orthogonalLoop=1;jettySize=auto;html=1;exitX=1;exitY=0.5;exitDx=0;exitDy=0;entryX=0;entryY=0.5;entryDx=0;entryDy=0;" edge="1" parent="82FWV0vqpKfq4LdGT2EX-1" source="l34au-5iK2HaqZB6a6BE-4" target="l34au-5iK2HaqZB6a6BE-12">
          <mxGeometry relative="1" as="geometry" />
        </mxCell>
        <mxCell id="l34au-5iK2HaqZB6a6BE-4" value="&lt;pre style=&quot;font-size: 9pt&quot;&gt;&lt;font color=&quot;#050505&quot;&gt;&lt;span style=&quot;background-color: rgb(255 , 255 , 255)&quot;&gt;CenterRevenueActController&lt;/span&gt;&lt;/font&gt;&lt;/pre&gt;&lt;pre style=&quot;font-size: 9pt&quot;&gt;&lt;font color=&quot;#050505&quot;&gt;&lt;span style=&quot;background-color: rgb(255 , 255 , 255)&quot;&gt;中屏&lt;/span&gt;&lt;/font&gt;活动条控制器&lt;/pre&gt;" style="rounded=0;whiteSpace=wrap;html=1;" vertex="1" parent="82FWV0vqpKfq4LdGT2EX-1">
          <mxGeometry x="324" y="351" width="204" height="60" as="geometry" />
        </mxCell>
        <mxCell id="l34au-5iK2HaqZB6a6BE-5" value="&lt;pre style=&quot;font-size: 9pt&quot;&gt;&lt;font color=&quot;#050505&quot;&gt;&lt;span style=&quot;background-color: rgb(255 , 255 , 255)&quot;&gt;ChannelRevenueCoreImpl&lt;/span&gt;&lt;/font&gt;&lt;/pre&gt;&lt;pre style=&quot;font-size: 9pt&quot;&gt;&lt;font color=&quot;#050505&quot;&gt;&lt;span style=&quot;background-color: rgb(255 , 255 , 255)&quot;&gt;活动条协议&lt;/span&gt;&lt;/font&gt;&lt;/pre&gt;" style="rounded=0;whiteSpace=wrap;html=1;fillColor=#f5f5f5;strokeColor=#666666;fontColor=#333333;" vertex="1" parent="82FWV0vqpKfq4LdGT2EX-1">
          <mxGeometry x="324" y="126" width="204" height="60" as="geometry" />
        </mxCell>
        <mxCell id="l34au-5iK2HaqZB6a6BE-6" value="" style="endArrow=classic;html=1;exitX=0.5;exitY=1;exitDx=0;exitDy=0;" edge="1" parent="82FWV0vqpKfq4LdGT2EX-1" source="l34au-5iK2HaqZB6a6BE-5" target="l34au-5iK2HaqZB6a6BE-4">
          <mxGeometry width="50" height="50" relative="1" as="geometry">
            <mxPoint x="634" y="424" as="sourcePoint" />
            <mxPoint x="684" y="374" as="targetPoint" />
          </mxGeometry>
        </mxCell>
        <mxCell id="l34au-5iK2HaqZB6a6BE-7" value="onCenterWebChannelInfo&lt;br&gt;2013.1305" style="text;html=1;strokeColor=none;fillColor=none;align=center;verticalAlign=middle;whiteSpace=wrap;rounded=0;" vertex="1" parent="82FWV0vqpKfq4LdGT2EX-1">
          <mxGeometry x="426" y="228" width="147" height="35" as="geometry" />
        </mxCell>
        <mxCell id="l34au-5iK2HaqZB6a6BE-8" style="edgeStyle=orthogonalEdgeStyle;rounded=0;orthogonalLoop=1;jettySize=auto;html=1;exitX=1;exitY=0.5;exitDx=0;exitDy=0;entryX=0;entryY=0.5;entryDx=0;entryDy=0;" edge="1" parent="82FWV0vqpKfq4LdGT2EX-1" source="l34au-5iK2HaqZB6a6BE-12" target="l34au-5iK2HaqZB6a6BE-16">
          <mxGeometry relative="1" as="geometry" />
        </mxCell>
        <mxCell id="l34au-5iK2HaqZB6a6BE-12" value="&lt;pre style=&quot;font-size: 9pt&quot;&gt;&lt;font color=&quot;#050505&quot;&gt;&lt;span style=&quot;background-color: rgb(255 , 255 , 255)&quot;&gt;CenterRevenueActAssisant&lt;/span&gt;&lt;/font&gt;&lt;/pre&gt;&lt;pre style=&quot;font-size: 9pt&quot;&gt;&lt;span style=&quot;background-color: rgb(255 , 255 , 255)&quot;&gt;&lt;font color=&quot;#050505&quot;&gt;活动条控制器&lt;/font&gt;&lt;/span&gt;&lt;/pre&gt;&lt;pre style=&quot;font-size: 9pt&quot;&gt;暂时只会有一个URL&lt;/pre&gt;" style="rounded=0;whiteSpace=wrap;html=1;fillColor=#f8cecc;strokeColor=#b85450;" vertex="1" parent="82FWV0vqpKfq4LdGT2EX-1">
          <mxGeometry x="646" y="340" width="204" height="82" as="geometry" />
        </mxCell>
        <mxCell id="l34au-5iK2HaqZB6a6BE-15" style="edgeStyle=orthogonalEdgeStyle;rounded=0;orthogonalLoop=1;jettySize=auto;html=1;exitX=1;exitY=0.5;exitDx=0;exitDy=0;entryX=0;entryY=0.5;entryDx=0;entryDy=0;" edge="1" parent="82FWV0vqpKfq4LdGT2EX-1" source="l34au-5iK2HaqZB6a6BE-16" target="l34au-5iK2HaqZB6a6BE-17">
          <mxGeometry relative="1" as="geometry" />
        </mxCell>
        <mxCell id="l34au-5iK2HaqZB6a6BE-16" value="&lt;pre style=&quot;font-size: 9pt&quot;&gt;&lt;font color=&quot;#050505&quot;&gt;&lt;span style=&quot;background-color: rgb(255 , 255 , 255)&quot;&gt;CenterWebRevenueActBar&lt;/span&gt;&lt;/font&gt;&lt;/pre&gt;&lt;pre style=&quot;font-size: 9pt&quot;&gt;&lt;span style=&quot;background-color: rgb(255 , 255 , 255)&quot;&gt;&lt;font color=&quot;#050505&quot;&gt;Web活动条&lt;/font&gt;&lt;/span&gt;&lt;/pre&gt;&lt;pre style=&quot;font-size: 9pt&quot;&gt;&lt;span style=&quot;background-color: rgb(255 , 255 , 255)&quot;&gt;&lt;font color=&quot;#050505&quot;&gt;拖拽逻辑&lt;/font&gt;&lt;/span&gt;&lt;/pre&gt;" style="rounded=0;whiteSpace=wrap;html=1;fillColor=#dae8fc;strokeColor=#6c8ebf;" vertex="1" parent="82FWV0vqpKfq4LdGT2EX-1">
          <mxGeometry x="923" y="343.5" width="204" height="75" as="geometry" />
        </mxCell>
        <mxCell id="l34au-5iK2HaqZB6a6BE-17" value="&lt;pre style=&quot;font-size: 9pt&quot;&gt;&lt;font color=&quot;#050505&quot;&gt;&lt;span style=&quot;background-color: rgb(255 , 255 , 255)&quot;&gt;CenterRevenueActBar&lt;/span&gt;&lt;/font&gt;&lt;/pre&gt;&lt;pre style=&quot;font-size: 9pt&quot;&gt;&lt;font color=&quot;#050505&quot;&gt;&lt;span style=&quot;background-color: rgb(255 , 255 , 255)&quot;&gt;活动条基类&lt;/span&gt;&lt;/font&gt;&lt;/pre&gt;&lt;pre style=&quot;font-size: 9pt&quot;&gt;&lt;font color=&quot;#050505&quot;&gt;&lt;span style=&quot;background-color: rgb(255 , 255 , 255)&quot;&gt;活动条宽高&lt;/span&gt;&lt;/font&gt;&lt;/pre&gt;&lt;pre style=&quot;font-size: 9pt&quot;&gt;&lt;font color=&quot;#050505&quot;&gt;&lt;span style=&quot;background-color: rgb(255 , 255 , 255)&quot;&gt;getRellyTopMargin&lt;/span&gt;&lt;/font&gt;&lt;/pre&gt;&lt;pre style=&quot;font-size: 9pt&quot;&gt;&lt;font color=&quot;#050505&quot;&gt;&lt;span style=&quot;background-color: rgb(255 , 255 , 255)&quot;&gt;获得离屏幕上方的距离&lt;/span&gt;&lt;/font&gt;&lt;/pre&gt;" style="rounded=0;whiteSpace=wrap;html=1;fillColor=#d5e8d4;strokeColor=#82b366;" vertex="1" parent="82FWV0vqpKfq4LdGT2EX-1">
          <mxGeometry x="1200" y="315" width="204" height="132" as="geometry" />
        </mxCell>
      </root>
    </mxGraphModel>
  </diagram>
  <diagram id="KKG_dBH9g1BODD2qDoTe" name="JS 调用">
    <mxGraphModel dx="2249" dy="761" grid="0" gridSize="10" guides="1" tooltips="1" connect="1" arrows="1" fold="1" page="1" pageScale="1" pageWidth="827" pageHeight="1169" math="0" shadow="0">
      <root>
        <mxCell id="60SKiHEDeZMOGz696MMa-0" />
        <mxCell id="60SKiHEDeZMOGz696MMa-1" parent="60SKiHEDeZMOGz696MMa-0" />
        <mxCell id="60SKiHEDeZMOGz696MMa-19" style="edgeStyle=orthogonalEdgeStyle;rounded=0;orthogonalLoop=1;jettySize=auto;html=1;exitX=0.5;exitY=0;exitDx=0;exitDy=0;" parent="60SKiHEDeZMOGz696MMa-1" source="60SKiHEDeZMOGz696MMa-7" target="60SKiHEDeZMOGz696MMa-18" edge="1">
          <mxGeometry relative="1" as="geometry" />
        </mxCell>
        <mxCell id="60SKiHEDeZMOGz696MMa-7" value="BaseWebViewFragment&lt;br&gt;Web基类" style="rounded=1;whiteSpace=wrap;html=1;align=center;" parent="60SKiHEDeZMOGz696MMa-1" vertex="1">
          <mxGeometry x="295" y="735" width="223" height="53" as="geometry" />
        </mxCell>
        <mxCell id="60SKiHEDeZMOGz696MMa-2" value="YYJSInterface&lt;br&gt;js管理" style="rounded=1;whiteSpace=wrap;html=1;align=center;" parent="60SKiHEDeZMOGz696MMa-1" vertex="1">
          <mxGeometry x="346.5" y="459" width="120" height="60" as="geometry" />
        </mxCell>
        <mxCell id="60SKiHEDeZMOGz696MMa-10" style="edgeStyle=orthogonalEdgeStyle;rounded=0;orthogonalLoop=1;jettySize=auto;html=1;exitX=0.5;exitY=1;exitDx=0;exitDy=0;" parent="60SKiHEDeZMOGz696MMa-1" source="60SKiHEDeZMOGz696MMa-3" target="60SKiHEDeZMOGz696MMa-2" edge="1">
          <mxGeometry relative="1" as="geometry" />
        </mxCell>
        <mxCell id="60SKiHEDeZMOGz696MMa-15" style="edgeStyle=orthogonalEdgeStyle;rounded=0;orthogonalLoop=1;jettySize=auto;html=1;exitX=0.5;exitY=0;exitDx=0;exitDy=0;" parent="60SKiHEDeZMOGz696MMa-1" source="60SKiHEDeZMOGz696MMa-3" target="60SKiHEDeZMOGz696MMa-13" edge="1">
          <mxGeometry relative="1" as="geometry">
            <Array as="points">
              <mxPoint x="215" y="256" />
              <mxPoint x="235" y="256" />
            </Array>
          </mxGeometry>
        </mxCell>
        <mxCell id="60SKiHEDeZMOGz696MMa-16" style="edgeStyle=orthogonalEdgeStyle;rounded=0;orthogonalLoop=1;jettySize=auto;html=1;exitX=0.5;exitY=0;exitDx=0;exitDy=0;entryX=0.5;entryY=1;entryDx=0;entryDy=0;" parent="60SKiHEDeZMOGz696MMa-1" source="60SKiHEDeZMOGz696MMa-3" target="60SKiHEDeZMOGz696MMa-14" edge="1">
          <mxGeometry relative="1" as="geometry">
            <Array as="points">
              <mxPoint x="215" y="259" />
              <mxPoint x="570" y="259" />
            </Array>
          </mxGeometry>
        </mxCell>
        <mxCell id="60SKiHEDeZMOGz696MMa-3" value="UIModule&lt;br&gt;基本的web ui调用js方法通道" style="rounded=1;whiteSpace=wrap;html=1;align=center;" parent="60SKiHEDeZMOGz696MMa-1" vertex="1">
          <mxGeometry x="154.5" y="315" width="120" height="60" as="geometry" />
        </mxCell>
        <mxCell id="60SKiHEDeZMOGz696MMa-11" style="edgeStyle=orthogonalEdgeStyle;rounded=0;orthogonalLoop=1;jettySize=auto;html=1;exitX=0.5;exitY=1;exitDx=0;exitDy=0;" parent="60SKiHEDeZMOGz696MMa-1" source="60SKiHEDeZMOGz696MMa-4" target="60SKiHEDeZMOGz696MMa-2" edge="1">
          <mxGeometry relative="1" as="geometry" />
        </mxCell>
        <mxCell id="60SKiHEDeZMOGz696MMa-4" value="ChannelModule" style="rounded=1;whiteSpace=wrap;html=1;align=center;" parent="60SKiHEDeZMOGz696MMa-1" vertex="1">
          <mxGeometry x="346.5" y="315" width="120" height="60" as="geometry" />
        </mxCell>
        <mxCell id="60SKiHEDeZMOGz696MMa-12" style="edgeStyle=orthogonalEdgeStyle;rounded=0;orthogonalLoop=1;jettySize=auto;html=1;exitX=0.5;exitY=1;exitDx=0;exitDy=0;entryX=0.5;entryY=0;entryDx=0;entryDy=0;" parent="60SKiHEDeZMOGz696MMa-1" source="60SKiHEDeZMOGz696MMa-5" target="60SKiHEDeZMOGz696MMa-2" edge="1">
          <mxGeometry relative="1" as="geometry" />
        </mxCell>
        <mxCell id="60SKiHEDeZMOGz696MMa-34" style="edgeStyle=orthogonalEdgeStyle;rounded=0;orthogonalLoop=1;jettySize=auto;html=1;exitX=0.5;exitY=0;exitDx=0;exitDy=0;entryX=0.5;entryY=1;entryDx=0;entryDy=0;" parent="60SKiHEDeZMOGz696MMa-1" source="60SKiHEDeZMOGz696MMa-5" target="60SKiHEDeZMOGz696MMa-13" edge="1">
          <mxGeometry relative="1" as="geometry">
            <Array as="points">
              <mxPoint x="587" y="261" />
              <mxPoint x="235" y="261" />
            </Array>
          </mxGeometry>
        </mxCell>
        <mxCell id="60SKiHEDeZMOGz696MMa-5" value="DataModule" style="rounded=1;whiteSpace=wrap;html=1;align=center;" parent="60SKiHEDeZMOGz696MMa-1" vertex="1">
          <mxGeometry x="526.5" y="315" width="120" height="60" as="geometry" />
        </mxCell>
        <mxCell id="60SKiHEDeZMOGz696MMa-13" value="JsMethiodPluginCoreImpl&lt;br&gt;channelapi共享" style="rounded=1;whiteSpace=wrap;html=1;align=center;" parent="60SKiHEDeZMOGz696MMa-1" vertex="1">
          <mxGeometry x="131" y="137" width="207" height="60" as="geometry" />
        </mxCell>
        <mxCell id="60SKiHEDeZMOGz696MMa-14" value="HostStore&lt;br&gt;跨底层插件" style="rounded=1;whiteSpace=wrap;html=1;align=center;" parent="60SKiHEDeZMOGz696MMa-1" vertex="1">
          <mxGeometry x="466.5" y="142" width="207" height="60" as="geometry" />
        </mxCell>
        <mxCell id="60SKiHEDeZMOGz696MMa-20" style="edgeStyle=orthogonalEdgeStyle;rounded=0;orthogonalLoop=1;jettySize=auto;html=1;exitX=0.5;exitY=0;exitDx=0;exitDy=0;" parent="60SKiHEDeZMOGz696MMa-1" source="60SKiHEDeZMOGz696MMa-18" target="60SKiHEDeZMOGz696MMa-2" edge="1">
          <mxGeometry relative="1" as="geometry" />
        </mxCell>
        <mxCell id="60SKiHEDeZMOGz696MMa-18" value="CustomJsInterface" style="rounded=1;whiteSpace=wrap;html=1;align=center;" parent="60SKiHEDeZMOGz696MMa-1" vertex="1">
          <mxGeometry x="346.5" y="585" width="120" height="60" as="geometry" />
        </mxCell>
        <mxCell id="60SKiHEDeZMOGz696MMa-21" value="onJsInvoke" style="text;html=1;strokeColor=none;fillColor=none;align=center;verticalAlign=middle;whiteSpace=wrap;rounded=0;" parent="60SKiHEDeZMOGz696MMa-1" vertex="1">
          <mxGeometry x="419" y="542" width="86" height="20" as="geometry" />
        </mxCell>
        <mxCell id="60SKiHEDeZMOGz696MMa-22" value="JavascriptInterface&lt;br&gt;invoke" style="text;html=1;strokeColor=none;fillColor=none;align=center;verticalAlign=middle;whiteSpace=wrap;rounded=0;" parent="60SKiHEDeZMOGz696MMa-1" vertex="1">
          <mxGeometry x="414" y="668" width="86" height="39" as="geometry" />
        </mxCell>
        <mxCell id="60SKiHEDeZMOGz696MMa-32" style="edgeStyle=orthogonalEdgeStyle;rounded=0;orthogonalLoop=1;jettySize=auto;html=1;exitX=1;exitY=0.5;exitDx=0;exitDy=0;" parent="60SKiHEDeZMOGz696MMa-1" source="60SKiHEDeZMOGz696MMa-23" target="60SKiHEDeZMOGz696MMa-25" edge="1">
          <mxGeometry relative="1" as="geometry" />
        </mxCell>
        <mxCell id="60SKiHEDeZMOGz696MMa-23" value="UIModuleMethods&lt;br&gt;注册各种ui js方法" style="rounded=1;whiteSpace=wrap;html=1;align=center;" parent="60SKiHEDeZMOGz696MMa-1" vertex="1">
          <mxGeometry x="-355" y="58" width="120" height="60" as="geometry" />
        </mxCell>
        <mxCell id="60SKiHEDeZMOGz696MMa-33" style="edgeStyle=orthogonalEdgeStyle;rounded=0;orthogonalLoop=1;jettySize=auto;html=1;exitX=1;exitY=0.5;exitDx=0;exitDy=0;entryX=0;entryY=0.5;entryDx=0;entryDy=0;" parent="60SKiHEDeZMOGz696MMa-1" source="60SKiHEDeZMOGz696MMa-25" target="60SKiHEDeZMOGz696MMa-13" edge="1">
          <mxGeometry relative="1" as="geometry" />
        </mxCell>
        <mxCell id="60SKiHEDeZMOGz696MMa-25" value="JsApiModuleManager" style="rounded=1;whiteSpace=wrap;html=1;align=center;" parent="60SKiHEDeZMOGz696MMa-1" vertex="1">
          <mxGeometry x="-176" y="137" width="207" height="60" as="geometry" />
        </mxCell>
        <mxCell id="60SKiHEDeZMOGz696MMa-31" style="edgeStyle=orthogonalEdgeStyle;rounded=0;orthogonalLoop=1;jettySize=auto;html=1;exitX=1;exitY=0.5;exitDx=0;exitDy=0;entryX=0.5;entryY=1;entryDx=0;entryDy=0;" parent="60SKiHEDeZMOGz696MMa-1" source="60SKiHEDeZMOGz696MMa-27" target="60SKiHEDeZMOGz696MMa-25" edge="1">
          <mxGeometry relative="1" as="geometry" />
        </mxCell>
        <mxCell id="60SKiHEDeZMOGz696MMa-27" value="DataModuleMethods" style="rounded=1;whiteSpace=wrap;html=1;align=center;" parent="60SKiHEDeZMOGz696MMa-1" vertex="1">
          <mxGeometry x="-351" y="221" width="120" height="60" as="geometry" />
        </mxCell>
        <mxCell id="60SKiHEDeZMOGz696MMa-30" value="addMethods" style="text;html=1;strokeColor=none;fillColor=none;align=center;verticalAlign=middle;whiteSpace=wrap;rounded=0;" parent="60SKiHEDeZMOGz696MMa-1" vertex="1">
          <mxGeometry x="28" y="142" width="96" height="20" as="geometry" />
        </mxCell>
        <mxCell id="60SKiHEDeZMOGz696MMa-36" style="edgeStyle=orthogonalEdgeStyle;rounded=0;orthogonalLoop=1;jettySize=auto;html=1;exitX=0.5;exitY=1;exitDx=0;exitDy=0;" parent="60SKiHEDeZMOGz696MMa-1" source="60SKiHEDeZMOGz696MMa-35" target="60SKiHEDeZMOGz696MMa-14" edge="1">
          <mxGeometry relative="1" as="geometry" />
        </mxCell>
        <mxCell id="60SKiHEDeZMOGz696MMa-35" value="AddUiModuleApiMethodMiddleware&lt;br&gt;用于首页初始化" style="rounded=1;whiteSpace=wrap;html=1;align=center;" parent="60SKiHEDeZMOGz696MMa-1" vertex="1">
          <mxGeometry x="466.5" y="31" width="207" height="60" as="geometry" />
        </mxCell>
        <mxCell id="60SKiHEDeZMOGz696MMa-37" value="" style="endArrow=none;dashed=1;html=1;dashPattern=1 3;strokeWidth=2;entryX=1;entryY=0.75;entryDx=0;entryDy=0;exitX=0.25;exitY=0;exitDx=0;exitDy=0;" parent="60SKiHEDeZMOGz696MMa-1" source="60SKiHEDeZMOGz696MMa-5" target="60SKiHEDeZMOGz696MMa-27" edge="1">
          <mxGeometry width="50" height="50" relative="1" as="geometry">
            <mxPoint x="246" y="418" as="sourcePoint" />
            <mxPoint x="296" y="368" as="targetPoint" />
          </mxGeometry>
        </mxCell>
        <mxCell id="60SKiHEDeZMOGz696MMa-38" value="" style="endArrow=none;dashed=1;html=1;dashPattern=1 3;strokeWidth=2;entryX=0.15;entryY=1.033;entryDx=0;entryDy=0;entryPerimeter=0;" parent="60SKiHEDeZMOGz696MMa-1" target="60SKiHEDeZMOGz696MMa-23" edge="1">
          <mxGeometry width="50" height="50" relative="1" as="geometry">
            <mxPoint x="153" y="347" as="sourcePoint" />
            <mxPoint x="296" y="368" as="targetPoint" />
          </mxGeometry>
        </mxCell>
      </root>
    </mxGraphModel>
  </diagram>
  <diagram id="F6EDE0FoYjjGNeXcbfMg" name="JS 协议">
    <mxGraphModel dx="1422" dy="761" grid="0" gridSize="10" guides="1" tooltips="1" connect="1" arrows="1" fold="1" page="1" pageScale="1" pageWidth="827" pageHeight="1169" math="0" shadow="0">
      <root>
        <mxCell id="Dbe24CLoaxfXRaEByFfX-0" />
        <mxCell id="Dbe24CLoaxfXRaEByFfX-1" parent="Dbe24CLoaxfXRaEByFfX-0" />
        <mxCell id="tpjZ4aDF5oRt6sVdoEZb-14" style="edgeStyle=orthogonalEdgeStyle;rounded=0;orthogonalLoop=1;jettySize=auto;html=1;exitX=0.25;exitY=1;exitDx=0;exitDy=0;entryX=0.5;entryY=1;entryDx=0;entryDy=0;" edge="1" parent="Dbe24CLoaxfXRaEByFfX-1" source="tpjZ4aDF5oRt6sVdoEZb-0" target="tpjZ4aDF5oRt6sVdoEZb-6">
          <mxGeometry relative="1" as="geometry">
            <Array as="points">
              <mxPoint x="151" y="468" />
              <mxPoint x="452" y="468" />
            </Array>
          </mxGeometry>
        </mxCell>
        <mxCell id="tpjZ4aDF5oRt6sVdoEZb-0" value="YYPservice&lt;br&gt;转送协议" style="rounded=1;whiteSpace=wrap;html=1;" vertex="1" parent="Dbe24CLoaxfXRaEByFfX-1">
          <mxGeometry x="121" y="181" width="120" height="60" as="geometry" />
        </mxCell>
        <mxCell id="tpjZ4aDF5oRt6sVdoEZb-3" style="edgeStyle=orthogonalEdgeStyle;rounded=0;orthogonalLoop=1;jettySize=auto;html=1;exitX=0;exitY=0.5;exitDx=0;exitDy=0;entryX=1;entryY=0.5;entryDx=0;entryDy=0;" edge="1" parent="Dbe24CLoaxfXRaEByFfX-1" source="tpjZ4aDF5oRt6sVdoEZb-1" target="tpjZ4aDF5oRt6sVdoEZb-0">
          <mxGeometry relative="1" as="geometry" />
        </mxCell>
        <mxCell id="tpjZ4aDF5oRt6sVdoEZb-1" value="YYPServiceTypesConfigDdata&lt;br&gt;服务器配置大端小端协议" style="rounded=1;whiteSpace=wrap;html=1;" vertex="1" parent="Dbe24CLoaxfXRaEByFfX-1">
          <mxGeometry x="392" y="181" width="231" height="60" as="geometry" />
        </mxCell>
        <mxCell id="tpjZ4aDF5oRt6sVdoEZb-4" value="getTypesConfig" style="text;html=1;strokeColor=none;fillColor=none;align=center;verticalAlign=middle;whiteSpace=wrap;rounded=0;" vertex="1" parent="Dbe24CLoaxfXRaEByFfX-1">
          <mxGeometry x="269" y="184" width="96" height="20" as="geometry" />
        </mxCell>
        <mxCell id="tpjZ4aDF5oRt6sVdoEZb-7" style="edgeStyle=orthogonalEdgeStyle;rounded=0;orthogonalLoop=1;jettySize=auto;html=1;exitX=0;exitY=0.5;exitDx=0;exitDy=0;entryX=0.5;entryY=1;entryDx=0;entryDy=0;" edge="1" parent="Dbe24CLoaxfXRaEByFfX-1" source="tpjZ4aDF5oRt6sVdoEZb-6" target="tpjZ4aDF5oRt6sVdoEZb-0">
          <mxGeometry relative="1" as="geometry" />
        </mxCell>
        <mxCell id="tpjZ4aDF5oRt6sVdoEZb-12" style="edgeStyle=orthogonalEdgeStyle;rounded=0;orthogonalLoop=1;jettySize=auto;html=1;exitX=0.5;exitY=0;exitDx=0;exitDy=0;entryX=0.75;entryY=1;entryDx=0;entryDy=0;" edge="1" parent="Dbe24CLoaxfXRaEByFfX-1" source="tpjZ4aDF5oRt6sVdoEZb-6" target="tpjZ4aDF5oRt6sVdoEZb-0">
          <mxGeometry relative="1" as="geometry" />
        </mxCell>
        <mxCell id="tpjZ4aDF5oRt6sVdoEZb-6" value="WebView" style="rounded=1;whiteSpace=wrap;html=1;" vertex="1" parent="Dbe24CLoaxfXRaEByFfX-1">
          <mxGeometry x="392" y="341" width="120" height="60" as="geometry" />
        </mxCell>
        <mxCell id="tpjZ4aDF5oRt6sVdoEZb-8" value="subscribeServerApi注册监听" style="text;html=1;strokeColor=none;fillColor=none;align=center;verticalAlign=middle;whiteSpace=wrap;rounded=0;" vertex="1" parent="Dbe24CLoaxfXRaEByFfX-1">
          <mxGeometry x="197" y="343" width="175" height="20" as="geometry" />
        </mxCell>
        <mxCell id="tpjZ4aDF5oRt6sVdoEZb-11" value="unSubscribeServerApi注销监听" style="text;html=1;strokeColor=none;fillColor=none;align=center;verticalAlign=middle;whiteSpace=wrap;rounded=0;" vertex="1" parent="Dbe24CLoaxfXRaEByFfX-1">
          <mxGeometry x="197" y="375" width="175" height="20" as="geometry" />
        </mxCell>
        <mxCell id="tpjZ4aDF5oRt6sVdoEZb-13" value="sendDataApi发送协议" style="text;html=1;strokeColor=none;fillColor=none;align=center;verticalAlign=middle;whiteSpace=wrap;rounded=0;" vertex="1" parent="Dbe24CLoaxfXRaEByFfX-1">
          <mxGeometry x="269" y="266" width="131" height="20" as="geometry" />
        </mxCell>
        <mxCell id="tpjZ4aDF5oRt6sVdoEZb-15" value="onBroadcastReceived发送广播" style="text;html=1;strokeColor=none;fillColor=none;align=center;verticalAlign=middle;whiteSpace=wrap;rounded=0;" vertex="1" parent="Dbe24CLoaxfXRaEByFfX-1">
          <mxGeometry x="207" y="443" width="179" height="20" as="geometry" />
        </mxCell>
        <mxCell id="tpjZ4aDF5oRt6sVdoEZb-17" style="edgeStyle=orthogonalEdgeStyle;rounded=0;orthogonalLoop=1;jettySize=auto;html=1;exitX=0.5;exitY=1;exitDx=0;exitDy=0;" edge="1" parent="Dbe24CLoaxfXRaEByFfX-1" source="tpjZ4aDF5oRt6sVdoEZb-16" target="tpjZ4aDF5oRt6sVdoEZb-1">
          <mxGeometry relative="1" as="geometry" />
        </mxCell>
        <mxCell id="tpjZ4aDF5oRt6sVdoEZb-16" value="统一配置中心服务器" style="rounded=1;whiteSpace=wrap;html=1;" vertex="1" parent="Dbe24CLoaxfXRaEByFfX-1">
          <mxGeometry x="447.5" y="58" width="120" height="60" as="geometry" />
        </mxCell>
        <mxCell id="tpjZ4aDF5oRt6sVdoEZb-18" value="配置下发白名单" style="text;html=1;strokeColor=none;fillColor=none;align=center;verticalAlign=middle;whiteSpace=wrap;rounded=0;" vertex="1" parent="Dbe24CLoaxfXRaEByFfX-1">
          <mxGeometry x="512" y="136" width="100" height="20" as="geometry" />
        </mxCell>
      </root>
    </mxGraphModel>
  </diagram>
</mxfile>
